<?xml version="1.0" standalone="no"?>
<!DOCTYPE svg PUBLIC "-//W3C//DTD SVG 20010904//EN"
 "http://www.w3.org/TR/2001/REC-SVG-20010904/DTD/svg10.dtd">
<svg version="1.0" xmlns="http://www.w3.org/2000/svg"
 width="96.000000pt" height="96.000000pt" viewBox="0 0 96.000000 96.000000"
 preserveAspectRatio="xMidYMid meet">
<metadata>
Created by potrace 1.14, written by Peter Selinger 2001-2017
</metadata>
<g transform="translate(0.000000,96.000000) scale(0.100000,-0.100000)"
fill="#000000" stroke="none">
<path d="M441 816 l-1 -106 40 0 40 0 0 66 0 66 38 -7 c55 -10 148 -63 187
-106 165 -183 114 -463 -103 -573 -110 -56 -227 -53 -340 9 -170 93 -235 315
-141 485 l30 55 -28 23 -28 22 -23 -27 c-12 -16 -32 -53 -44 -83 -32 -78 -32
-240 0 -320 44 -111 150 -214 265 -257 51 -19 199 -26 253 -12 108 28 220 112
277 209 40 69 60 161 54 250 -6 95 -35 170 -91 242 -80 100 -184 156 -313 165
l-72 6 0 -107z"/>
<path d="M242 662 c7 -9 50 -55 95 -102 46 -47 98 -103 116 -124 l34 -38 36
44 c34 40 36 44 19 56 -40 31 -312 179 -300 164z"/>
</g>
</svg>
